<svg width="20" height="20" viewBox="0 0 20 20" fill="none" xmlns="http://www.w3.org/2000/svg">
<path d="M5.00012 1.66669L2.50012 5.00002V16.6667C2.50012 17.1087 2.67572 17.5326 2.98828 17.8452C3.30084 18.1578 3.72476 18.3334 4.16679 18.3334H15.8335C16.2755 18.3334 16.6994 18.1578 17.012 17.8452C17.3245 17.5326 17.5001 17.1087 17.5001 16.6667V5.00002L15.0001 1.66669H5.00012Z" stroke="#2D3B87" stroke-width="1.5" stroke-linecap="round" stroke-linejoin="round"/>
<path d="M2.50012 5H17.5001" stroke="#2D3B87" stroke-width="1.5" stroke-linecap="round" stroke-linejoin="round"/>
<path d="M13.3334 8.33337C13.3334 9.21743 12.9822 10.0653 12.3571 10.6904C11.732 11.3155 10.8841 11.6667 10.0001 11.6667C9.11603 11.6667 8.26818 11.3155 7.64306 10.6904C7.01794 10.0653 6.66675 9.21743 6.66675 8.33337" stroke="#2D3B87" stroke-width="1.5" stroke-linecap="round" stroke-linejoin="round"/>
</svg>
